# xmcd
# 
# Track frame offsets:
#     150
#     22505
#     39848
#     54215
#     71980
#     92920
#     108178
#     130820
#     147945
#     159625
#     174018
#     189255
# 
# Disc length: 2729
# 
# Revision: 3
# Processed by: cddbd v1.5.2PL0 Copyright (c) Steve Scherf et al.
# Submitted via: fre:ac v1.0.17
# 
DISCID=8c0aa70c
DTITLE=Omar And The Howlers - The Screamin' Cat
DYEAR=2000
DGENRE=Blues
TTITLE0=When Sugar Cane Was King
TTITLE1=The Screamin' Cat
TTITLE2=One Hundred Pounds Of Pain
TTITLE3=Radio Man
TTITLE4=Bad Ol' Man
TTITLE5=Steady Rock
TTITLE6=Snake Oil Doctor
TTITLE7=Too Many People Talkin'
TTITLE8=Party Girl
TTITLE9=Girl's Got Rythym
TTITLE10=Drug Store Candly Smile
TTITLE11=Automatic
EXTD=YEAR: 2000 ID3G: 17
EXTT0=
EXTT1=
EXTT2=
EXTT3=
EXTT4=
EXTT5=
EXTT6=
EXTT7=
EXTT8=
EXTT9=
EXTT10=
EXTT11=
PLAYORDER=
